<svg width="512" height="512" viewBox="0 0 512 512" xmlns="http://www.w3.org/2000/svg">
<defs>
  <linearGradient id="aura" x1="0%" y1="0%" x2="100%" y2="100%">
    <stop offset="0%" stop-color="#1E90FF"/>
    <stop offset="100%" stop-color="#7F2BFF"/>
  </linearGradient>
</defs>
<circle cx="256" cy="256" r="230" fill="url(#aura)" />
<path d="M180 260c0-40 35-78 80-78s80 38 80 78-35 78-80 78-80-38-80-78z" fill="#FFFFFF"/>
<path d="M240 180c-50 0-90 42-90 90s40 90 90 90 90-42 90-90-40-90-90-90zm0 160c-38 0-70-32-70-70s32-70 70-70 70 32 70 70-32 70-70 70z" fill="#FFFFFF" opacity="0.5"/>
</svg>
